<?xml version="1.0" encoding="utf-8"?><!DOCTYPE svg PUBLIC "-//W3C//DTD SVG 1.1//EN" "http://www.w3.org/Graphics/SVG/1.1/DTD/svg11.dtd"><svg xmlns="http://www.w3.org/2000/svg" xmlns:xlink="http://www.w3.org/1999/xlink"><defs><svg viewBox="0 0 240.94 155.91" id="drupal-8"><path fill="#2BA9E0" d="M79.935 90.602c0 3.453-1.497 6.248-4.983 6.248-3.49 0-4.996-2.795-4.996-6.248V78.798h-6.364v11.804c0 6.824 4.43 12.353 11.324 12.353 6.887 0 11.384-5.528 11.384-12.353V78.784h-6.38l.015 11.818zM143.808 71.586h6.344v30.76h-6.344zM154.837 72.72h1.81v4.873h1.33V72.72h1.807v-1.104h-4.947zM165.108 71.616l-1.335 4.11h-.017l-1.41-4.11h-1.868v5.977h1.24V73.4h.017l1.477 4.193h1.027l1.478-4.24h.014v4.24h1.244v-5.977zM49.342 82.95c-.07.14-.07.22-.315.22-.2-.01-.223-.22-.223-.22l-.678-4.117H42.44v23.495h6.372V89.61c0-1.04 2.827-6.02 8.303-4.744 2.767.652 3.94 1.816 3.94 1.816v-7.156c-1.024-.53-1.727-.787-2.65-.998-5.467-1.25-8.918 4.13-9.063 4.422zM101.12 78.34c-6.936 0-12.56 5.568-12.56 12.438v19.287h6.39v-8.454l.003-3.166s.01-.25.24-.257c.205 0 .25.136.302.257.482 1.192 3.142 5.73 9.04 4.306 5.277-1.474 9.146-6.272 9.146-11.972 0-6.87-5.622-12.438-12.56-12.438zm.006 18.733c-3.514 0-6.356-2.816-6.356-6.295 0-3.475 2.842-6.297 6.356-6.297 3.512 0 6.358 2.823 6.358 6.298 0 3.48-2.845 6.295-6.358 6.295zM128.67 78.34c-6.938 0-12.562 5.568-12.562 12.438 0 5.7 3.87 10.498 9.152 11.972 5.897 1.424 8.555-3.113 9.035-4.306.053-.12.098-.257.304-.257.23.006.238.257.238.257l.005 3.892h6.39V90.778c-.002-6.87-5.624-12.438-12.563-12.438zm-.003 18.733c-3.513 0-6.36-2.816-6.36-6.295 0-3.475 2.848-6.297 6.36-6.297 3.51 0 6.356 2.823 6.356 6.298 0 3.48-2.847 6.295-6.356 6.295zM23.01 71.57H15.23v30.718h7.25c9.52 0 17.088-1.842 17.088-15.358 0-13.646-7.144-15.36-16.56-15.36zm1.27 25.455l-2.632-.067v-20.06h2.563c5.872 0 8.94.814 8.94 10.03 0 9.61-3.473 10.097-8.87 10.097z"/><g><circle fill="#2BA9E0" cx="211.353" cy="91.899" r="7.294"/><path fill="#2BA9E0" d="M220.42 83.213a12.514 12.514 0 0 1 3.495 8.686c0 4.27-2.133 8.038-5.39 10.308 6.02-1.855 10.995-6.377 13.224-11.854 3.08-7.576.212-13.28-4.605-18.45.146.67.23 1.363.23 2.077 0 4.384-2.94 8.08-6.954 9.233z"/><circle fill="#2BA9E0" cx="217.765" cy="73.979" r="5.58"/><path fill="#2BA9E0" d="M201.742 99.988a12.505 12.505 0 0 1-2.954-8.09c0-6.43 4.834-11.73 11.064-12.47a9.57 9.57 0 0 1-1.697-5.45c0-5.306 4.303-9.607 9.61-9.607.438 0 .868.032 1.29.09-3.143-2.713-6.28-5.464-8.756-8.472 1.264 13.172-12 8.386-16.9 20.525-3.29 8.145-.325 18.215 8.342 23.475z"/></g></svg><svg viewBox="0 0 755 826" id="druplicon"><path fill="#00598E" d="M539.2 167.8c-39.8-24.8-77.2-34.5-114.8-59.2-23.2-15.8-55.5-53.2-82.5-85.5-5.2 51.8-21 72.8-39 87.8-38.2 30-62.2 39-95.2 57-27.8 14.2-178.5 104.2-178.5 297.7s162.8 336 343.5 336 337.5-131.2 337.5-330-147-288.8-171-303.8z"/><path fill="#FFF" d="M478.2 633.5c12 0 24.8.8 33.8 6.8s14.2 19.5 17.2 27 0 12-6 15c-5.2 3-6 1.5-11.2-8.2s-9.8-19.5-36-19.5-34.5 9-47.2 19.5-17.2 14.2-21.8 8.2-3-12 5.2-19.5 21.8-19.5 34.5-24.8 19.5-4.5 31.5-4.5zM353.8 719c15 12 37.5 21.8 85.5 21.8S521 727.2 536 716c6.8-5.2 9.8-.8 10.5 2.2s2.2 7.5-3 12.8c-3.8 3.8-38.2 27.8-78.8 31.5s-95.2 6-128.2-24c-5.2-5.2-3.8-12.8 0-15.8s6.8-5.2 11.2-5.2 3.8 0 6.1 1.5z"/><path fill="#0073BA" d="M170 662c57-.8 67.5-10.5 117.8-33 271.5-121.5 321.8-232.5 331.5-258s24-66.8 9-112.5c-2.9-8.8-5-15.9-6.5-21.6-36.1-40.3-71.9-62.4-82.7-69.1-39-24.8-77.3-34.5-114.8-59.2-23.2-15-55.5-53.2-82.5-85.5-5.2 51.8-20.2 73.5-39 87.8-38.2 30-62.2 39-95.2 57C179.8 182.8 29 272 29 465.5c0 61.8 16.6 118.4 45.1 166.8l7.4-.3c15.7 14.2 40.5 30.8 88.5 30z"/><path fill="#004975" d="M539 167.8c-39-24.8-77.2-34.5-114.8-59.2-23.2-15-55.5-53.2-82.5-85.5-5.2 51.8-20.2 73.5-39 87.8-38.2 30-62.2 39-95.2 57C179.8 182.8 29 272 29 465.5c0 61.8 16.6 118.4 45.1 166.8 60.7 103.2 175.4 169.2 298.4 169.2 180.8 0 337.5-131.2 337.5-330 0-109.1-44.3-185.5-88.3-234.6-36.1-40.4-71.9-62.4-82.7-69.1zm91.2 87.7c49.2 61.6 74.2 134.2 74.2 216 0 47.4-9 92.2-26.8 133.2-16.9 38.8-41.2 73.2-72.3 102.3-61.5 57.4-144.1 89-232.7 89-43.8 0-86.8-8.4-127.8-24.9-40.3-16.2-76.5-39.4-107.8-69C70.9 639.7 34.6 555.7 34.6 465.5c0-80.3 26.1-151.7 77.5-212.2 39.3-46.2 81.7-71.8 98-80.6 8-4.3 15.4-8.2 22.6-11.9 22.6-11.6 44-22.6 73.4-45.6 15.7-11.9 32.4-30.8 39.5-78.7 24.8 29.5 53.5 62.6 75.5 76.8 19.5 12.9 39.5 21.9 58.8 30.6 18.3 8.2 37.2 16.8 55.9 28.7l.7.4c54.9 34.1 84.1 70.6 93.7 82.5z"/><path fill="#93C5E4" d="M345.5 38c10.5 30.8 9 46.5 9 53.2s-3.8 24.8-15.8 33.8c-5.2 3.8-6.8 6.8-6.8 7.5 0 3 6.8 5.2 6.8 12 0 8.2-3.8 24.8-43.5 64.5s-96.8 75-141 96.8S89 326 83 315.5s2.2-33.8 30-64.5 115.5-75 115.5-75L338 99.5l6-29.2"/><path fill="#FFF" d="M345.5 37.2c-6.8 49.5-21.8 64.5-42 80.2-33.8 25.5-66.8 41.2-74.2 45-19.5 9.8-90 48.8-126.8 105-11.2 17.2 0 24 2.2 25.5s27.8 4.5 82.5-28.5S266 212 296.8 179.8c16.5-17.2 18.8-27 18.8-31.5 0-5.2-3.8-7.5-9.8-9-3-.8-3.8-2.2 0-4.5S325.2 125 329 122s21.8-15 22.5-34.5-.7-33-6-50.3zM176.8 582.5c.8-58.5 55.5-113.2 124.5-114 87.8-.8 148.5 87 192.8 86.2 37.5-.8 109.5-74.2 144.8-74.2 37.5 0 48 39 48 62.2s-7.5 65.2-25.5 91.5-29.2 36-50.2 34.5c-27-2.2-81-86.2-115.5-87.8-43.5-1.5-138 90.8-212.2 90.8-45 0-58.5-6.8-73.5-16.5-22.8-15.7-34-39.7-33.2-72.7z"/><path fill="none" d="M628.2 258.5c15 45.8.8 87-9 112.5s-60 136.5-331.5 258c-50.2 22.5-60.8 32.2-117.8 33-48 .8-72.8-15.8-88.5-30l-7.4.3c60.7 103.2 175.4 169.2 298.4 169.2 180.8 0 337.5-131.2 337.5-330 0-109.1-44.3-185.5-88.3-234.6 1.6 5.7 3.8 12.8 6.6 21.6z"/></svg></defs></svg>